<svg width="17" height="30" viewBox="0 0 17 30" fill="none" xmlns="http://www.w3.org/2000/svg">
    <path d="M6.72101 20.5826C5.42806 20.6745 4.26441 20.5486 3.45832 20.1623C-0.980793 18.0354 -1.34473 10.921 3.52536 9.26533C6.98279 8.08952 11.8162 9.3402 14.351 12.124C18.4948 16.6758 11.6645 20.2321 6.72101 20.5843L6.72101 20.5826Z" fill="#9C866C"/>
    <path d="M15.2673 18.7398C15.3503 18.4012 15.4365 18.0659 15.5769 17.7579C15.6823 17.5282 15.9074 17.1556 16.1819 17.1335C16.7741 17.0875 16.2936 20.0789 16.2537 20.3971C16.0686 21.8979 16.3048 23.7612 15.486 25.0561C14.6639 26.3527 13.4156 27.2205 12.2089 28.0611C11.8162 28.3351 11.3932 28.6141 10.9479 28.8438C10.2471 29.2063 9.49371 29.4462 8.72113 29.3475C7.76659 29.2267 7.20472 28.461 7.09298 27.4843C6.79768 24.8672 9.59587 23.1214 10.7068 20.9842C10.9383 20.5401 12.1961 18.7925 12.5313 20.1453C12.5425 20.1878 12.5457 20.2304 12.5457 20.2746C12.5457 20.375 12.5186 20.4771 12.4914 20.5758C12.3557 21.088 12.2169 21.607 11.9679 22.0681C11.8497 22.2893 11.7061 22.4935 11.5864 22.7147C11.4491 22.9665 11.2655 23.1843 11.0708 23.3868C10.9734 23.4889 10.8713 23.5876 10.7707 23.6863C10.7212 23.7357 10.6701 23.7833 10.6206 23.8326C10.576 23.8769 10.5313 23.9245 10.4993 23.979C10.4722 24.0249 10.4626 24.076 10.4786 24.127C10.5009 24.1951 10.5584 24.2597 10.6175 24.2921C10.6749 24.3227 10.7372 24.3431 10.7994 24.3533C10.9239 24.3755 11.0516 24.3601 11.1761 24.338C11.3086 24.3142 11.4395 24.2802 11.5736 24.2614C11.9886 24.2019 12.3637 23.9569 12.6766 23.6727C13.3039 23.1044 13.7604 22.3284 14.1403 21.5593C14.45 20.9297 14.7629 20.2984 15.0119 19.6382C15.1204 19.3506 15.1922 19.0444 15.2673 18.7415L15.2673 18.7398Z" fill="#9C866C"/>
    <path d="M15.2673 10.63C15.3503 10.9687 15.4365 11.3039 15.5769 11.6119C15.6823 11.8416 15.9074 12.2142 16.1819 12.2364C16.7741 12.2823 16.2936 9.29089 16.2537 8.97269C16.0686 7.47188 16.3048 5.60864 15.4859 4.31372C14.6639 3.0171 13.4156 2.14929 12.2089 1.3087C11.8162 1.03475 11.3932 0.755684 10.9479 0.525969C10.2471 0.163529 9.49371 -0.0763947 8.72113 0.0222979C7.76659 0.143111 7.20472 0.908829 7.09298 1.88554C6.79768 4.5026 9.59587 6.24844 10.7068 8.38564C10.9383 8.82976 12.1961 10.5773 12.5313 9.22453C12.5425 9.18199 12.5457 9.13945 12.5457 9.09521C12.5457 8.99481 12.5186 8.89272 12.4914 8.79402C12.3557 8.28184 12.2169 7.76286 11.9679 7.30173C11.8497 7.08052 11.7061 6.87633 11.5864 6.65512C11.4491 6.40328 11.2655 6.18548 11.0708 5.98299C10.9734 5.88089 10.8713 5.7822 10.7707 5.68351C10.7212 5.63416 10.6701 5.58651 10.6206 5.53717C10.576 5.49293 10.5313 5.44528 10.4993 5.39083C10.4722 5.34489 10.4626 5.29384 10.4786 5.24279C10.5009 5.17473 10.5584 5.11007 10.6175 5.07774C10.6749 5.04711 10.7372 5.02669 10.7994 5.01648C10.9239 4.99436 11.0516 5.00967 11.1761 5.03179C11.3086 5.05562 11.4395 5.08965 11.5736 5.10837C11.9886 5.16792 12.3637 5.41295 12.6766 5.69712C13.3039 6.26545 13.7604 7.04138 14.1403 7.8105C14.45 8.44009 14.7629 9.07138 15.0119 9.7316C15.1204 10.0192 15.1922 10.3255 15.2673 10.6283L15.2673 10.63Z" fill="#9C866C"/>
    </svg>
    