<svg width="45" height="45" viewBox="0 0 45 45" fill="none" xmlns="http://www.w3.org/2000/svg">
<path d="M15.1372 31.5509C10.9858 32.4408 6.85949 33.3252 2.73321 34.21C2.72518 34.1987 2.71679 34.1878 2.70876 34.1765C5.53796 31.0533 8.36715 27.9304 11.2204 24.7803C7.47007 22.7998 3.73504 20.8273 0 18.8551C0.00218978 18.8427 0.00437956 18.8303 0.00656934 18.818C4.19197 18.2399 8.37737 17.6614 12.581 17.0808C10.9832 13.1573 9.39343 9.25271 7.80328 5.34851C7.81168 5.33831 7.81971 5.32775 7.8281 5.31755C11.4077 7.55997 14.9872 9.80275 18.5821 12.0546C19.8843 8.02623 21.1814 4.01311 22.4788 0C22.4923 0 22.5055 0 22.519 0C23.8157 4.01202 25.1124 8.02441 26.4153 12.0554C30.0142 9.8002 33.5934 7.55742 37.2197 5.28513C35.608 9.24324 34.0168 13.1511 32.4164 17.0808C36.6201 17.6614 40.8058 18.2395 44.9916 18.8176C44.9945 18.83 44.9971 18.842 45 18.8544C41.2657 20.8262 37.531 22.7979 33.7766 24.7806C36.6259 27.9257 39.4573 31.0507 42.2883 34.1758C42.2803 34.1874 42.2726 34.1987 42.2646 34.2104C38.1387 33.3259 34.0128 32.4419 29.8606 31.552C30.0168 35.7898 30.1719 40 30.327 44.2102C30.3157 44.2142 30.3044 44.2178 30.2931 44.2219C27.6989 40.8954 25.1051 37.5689 22.4989 34.2268C19.8967 37.5638 17.308 40.8834 14.719 44.2033C14.7029 44.2007 14.6865 44.1985 14.6704 44.196C14.8255 39.9898 14.981 35.7833 15.1372 31.5512V31.5509Z" fill="#9C866C"/>
</svg>
