<svg width="36" height="36" viewBox="0 0 36 36" fill="none" xmlns="http://www.w3.org/2000/svg">
<g clip-path="url(#clip0_48_970)">
<path d="M0.111145 35.8889C0.599993 34.1071 1.06027 32.4271 1.52054 30.7481C1.85222 29.5396 2.19411 28.333 2.50232 27.1183C2.55845 26.8984 2.54212 26.6052 2.43904 26.4087C-1.30437 19.2773 -0.256256 11.2337 5.35784 5.46372C9.35232 1.35741 14.3306 -0.393861 20.0376 0.236392C27.9234 1.10795 34.0846 6.85761 35.5715 14.5683C37.6269 25.2317 29.4522 35.3371 18.5598 35.5998C15.5441 35.6721 12.6865 35.0438 9.99935 33.6774C9.67277 33.5115 9.38804 33.4809 9.03288 33.5756C6.26002 34.3138 3.48103 35.0326 0.70409 35.7556C0.543862 35.7973 0.380573 35.8289 0.111145 35.8899L0.111145 35.8889ZM4.40362 31.6543C4.67101 31.5953 4.83532 31.5647 4.99657 31.523C6.49271 31.134 7.99089 30.7512 9.48193 30.3449C9.83606 30.2482 10.1147 30.2818 10.4351 30.4763C12.4446 31.6961 14.6327 32.3945 16.9759 32.5595C26.0732 33.1989 33.5518 25.6399 32.7966 16.5853C32.1098 8.34313 24.5862 2.21777 16.3687 3.21049C5.54257 4.51783 -0.20829 16.456 5.55277 25.6919C5.81301 26.1093 5.85282 26.4616 5.7181 26.9198C5.26701 28.4603 4.85573 30.012 4.40362 31.6543Z" fill="white"/>
<path d="M22.7625 27.0073C22.0706 26.8525 21.3643 26.7436 20.6887 26.5348C16.4616 25.2295 13.2723 22.5925 10.8995 18.9117C10.0433 17.584 9.17374 16.2645 8.88492 14.6731C8.52875 12.707 9.03801 11.0086 10.5321 9.65242C11.2404 9.00893 12.0987 8.91221 12.9559 9.2757C13.2611 9.405 13.5611 9.73897 13.6918 10.0515C14.1714 11.1899 14.5715 12.3618 15.0164 13.5154C15.1879 13.9593 15.0256 14.3167 14.7633 14.6435C14.4562 15.0264 14.1173 15.3848 13.7959 15.7574C13.4601 16.1464 13.4172 16.5292 13.6918 17.0057C15.0042 19.2905 16.8137 21.0438 19.1711 22.2341C20.0927 22.6994 20.3152 22.6668 21.0112 21.8981C21.3868 21.4837 21.7562 21.0621 22.1032 20.6243C22.3594 20.3005 22.6594 20.158 23.034 20.3484C24.3342 21.0112 25.6333 21.6751 26.908 22.3847C27.0795 22.4805 27.1856 22.8429 27.1805 23.0781C27.1285 25.3364 25.5905 26.486 23.3942 26.8892C23.1952 26.9258 22.988 26.9146 22.785 26.9248C22.7778 26.9523 22.7707 26.9798 22.7645 27.0073H22.7625Z" fill="white"/>
</g>
<defs>
<clipPath id="clip0_48_970">
<rect width="35.7778" height="35.7778" fill="white" transform="translate(0.111145 0.111084)"/>
</clipPath>
</defs>
</svg>
