<svg width="50" height="30" viewBox="0 0 50 30" fill="none" xmlns="http://www.w3.org/2000/svg">
    <path d="M15.4261 12.0755C15.2718 9.7525 15.4833 7.66179 16.1321 6.21349C19.7049 -1.76217 31.6552 -2.41606 34.4362 6.33394C36.4113 12.5458 34.3105 21.2299 29.6344 25.7841C21.9886 33.2292 16.0149 20.9574 15.4233 12.0755H15.4261Z" fill="#9C866C"/>
    <path d="M18.5217 27.4303C19.0905 27.5794 19.6535 27.7343 20.1709 27.9867C20.5568 28.176 21.1827 28.5803 21.2199 29.0736C21.297 30.1376 16.2723 29.2744 15.7378 29.2027C13.2168 28.87 10.087 29.2944 7.91193 27.8232C5.73395 26.3462 4.27626 24.1035 2.86429 21.9354C2.40411 21.2299 1.93536 20.4699 1.5495 19.6697C0.940697 18.4107 0.537686 17.0571 0.703463 15.669C0.906398 13.954 2.1926 12.9445 3.83323 12.7437C8.22919 12.2132 11.1617 17.2406 14.7517 19.2367C15.4977 19.6525 18.4331 21.9124 16.1608 22.5147C16.0893 22.5348 16.0179 22.5405 15.9436 22.5405C15.7749 22.5405 15.6034 22.4918 15.4377 22.443C14.5773 22.1992 13.7056 21.9497 12.931 21.5023C12.5594 21.2901 12.2164 21.032 11.8449 20.8169C11.4218 20.5702 11.056 20.2404 10.7159 19.8906C10.5444 19.7156 10.3786 19.5321 10.2128 19.3514C10.1299 19.2625 10.0499 19.1707 9.967 19.0818C9.89268 19.0015 9.81265 18.9212 9.72119 18.8638C9.64402 18.8151 9.55827 18.7979 9.47252 18.8266C9.35819 18.8667 9.24958 18.97 9.19527 19.0761C9.14383 19.1793 9.10953 19.2912 9.09238 19.403C9.05522 19.6267 9.08095 19.8561 9.1181 20.0798C9.15812 20.3179 9.21528 20.553 9.24672 20.7939C9.34676 21.5396 9.75835 22.2136 10.2357 22.7757C11.1903 23.9028 12.4937 24.723 13.7856 25.4055C14.8431 25.9619 15.9035 26.524 17.0125 26.9714C17.4956 27.1664 18.0101 27.2955 18.5188 27.4303H18.5217Z" fill="#9C866C"/>
    <path d="M32.1434 27.4303C31.5746 27.5794 31.0115 27.7343 30.4942 27.9867C30.1083 28.176 29.4824 28.5803 29.4452 29.0736C29.368 30.1376 34.3928 29.2744 34.9273 29.2027C37.4483 28.87 40.578 29.2944 42.7532 27.8232C44.9311 26.3462 46.3888 24.1035 47.8008 21.9354C48.261 21.2299 48.7297 20.4699 49.1156 19.6697C49.7244 18.4107 50.1274 17.0571 49.9616 15.669C49.7587 13.954 48.4725 12.9445 46.8318 12.7437C42.4359 12.2132 39.5033 17.2406 35.9134 19.2367C35.1674 19.6525 32.232 21.9124 34.5043 22.5147C34.5757 22.5348 34.6472 22.5405 34.7215 22.5405C34.8902 22.5405 35.0616 22.4918 35.2274 22.443C36.0877 22.1992 36.9595 21.9497 37.7341 21.5023C38.1057 21.2901 38.4486 21.032 38.8202 20.8169C39.2432 20.5702 39.6091 20.2404 39.9492 19.8906C40.1207 19.7156 40.2865 19.5321 40.4523 19.3514C40.5352 19.2625 40.6152 19.1707 40.6981 19.0818C40.7724 19.0015 40.8524 18.9212 40.9439 18.8638C41.0211 18.8151 41.1068 18.7979 41.1926 18.8266C41.3069 18.8667 41.4155 18.97 41.4698 19.0761C41.5213 19.1793 41.5556 19.2912 41.5727 19.403C41.6099 19.6267 41.5841 19.8561 41.547 20.0798C41.507 20.3179 41.4498 20.553 41.4184 20.7939C41.3183 21.5396 40.9067 22.2136 40.4294 22.7757C39.4748 23.9028 38.1714 24.723 36.8795 25.4055C35.8219 25.9619 34.7615 26.524 33.6525 26.9714C33.1695 27.1664 32.655 27.2955 32.1462 27.4303H32.1434Z" fill="#9C866C"/>
    </svg>
    